<?xml version="1.0" standalone="no"?>
<!DOCTYPE svg PUBLIC "-//W3C//DTD SVG 20010904//EN"
 "http://www.w3.org/TR/2001/REC-SVG-20010904/DTD/svg10.dtd">
<svg version="1.0" xmlns="http://www.w3.org/2000/svg"
 width="925.000000pt" height="925.000000pt" viewBox="0 0 925.000000 925.000000"
 preserveAspectRatio="xMidYMid meet">
<metadata>
Created by potrace 1.14, written by Peter Selinger 2001-2017
</metadata>
<g transform="translate(0.000000,925.000000) scale(0.100000,-0.100000)"
fill="#000000" stroke="none">
<path d="M4572 7973 c-12 -9 -53 -52 -89 -97 -37 -45 -119 -135 -183 -201 -95
-99 -179 -195 -300 -347 -15 -18 -17 -17 -34 19 -21 43 -82 146 -163 272 -32
49 -75 117 -96 150 -21 34 -45 65 -54 68 -21 8 -61 -7 -114 -46 -24 -17 -89
-61 -144 -98 -55 -37 -125 -87 -155 -111 -152 -121 -199 -162 -248 -212 l-54
-55 37 80 c64 139 68 148 86 235 26 121 24 145 -11 190 l-30 37 -162 7 c-648
26 -759 17 -758 -58 0 -13 51 -73 140 -163 l140 -143 0 -107 -1 -108 -19 36
c-37 69 -29 69 -250 22 l-75 -15 -304 301 c-166 165 -311 301 -320 301 -23 0
-51 -31 -51 -56 0 -22 -25 -62 -132 -211 -40 -56 -91 -132 -113 -168 -22 -37
-49 -81 -60 -98 -36 -57 -141 -251 -155 -287 -8 -19 -27 -59 -42 -89 -15 -29
-28 -63 -28 -76 0 -32 157 -319 205 -375 12 -14 34 -46 49 -72 14 -26 43 -68
64 -92 60 -74 81 -103 88 -122 11 -30 46 -64 66 -64 16 0 18 -9 18 -87 0 -49
5 -105 11 -126 9 -34 7 -41 -21 -80 -67 -93 -120 -178 -120 -195 0 -10 27 -44
59 -76 54 -53 62 -58 95 -54 20 2 36 0 36 -5 0 -5 12 -24 28 -42 15 -18 54
-83 87 -145 59 -110 87 -156 190 -315 28 -44 64 -102 80 -130 15 -27 44 -72
64 -100 21 -27 75 -115 120 -195 46 -80 91 -154 100 -165 10 -11 37 -53 61
-93 23 -40 53 -81 65 -90 l22 -18 -36 -70 c-62 -123 -78 -157 -117 -246 l-38
-87 -25 19 c-44 31 -170 160 -200 203 -16 23 -43 55 -60 70 l-32 28 33 41
c100 124 108 137 108 181 0 36 -6 48 -33 73 -62 58 -165 134 -204 150 -21 9
-49 24 -63 33 -28 19 -193 91 -209 91 -5 0 -41 37 -79 83 -38 45 -80 92 -93
103 -41 37 -119 49 -302 48 -154 -1 -170 -3 -188 -21 -22 -21 -79 -199 -79
-244 0 -26 -3 -27 -52 -32 -166 -15 -223 -64 -247 -212 -21 -125 -19 -122 -69
-152 -26 -15 -71 -40 -101 -55 -29 -14 -66 -39 -82 -54 -25 -24 -29 -35 -29
-84 l0 -56 98 -95 c100 -96 175 -159 188 -159 4 0 33 -21 63 -48 31 -26 83
-67 116 -92 33 -24 78 -59 99 -77 35 -29 46 -33 100 -33 64 0 89 6 301 64 106
30 135 42 157 66 22 24 36 30 67 30 34 0 44 6 73 40 l33 41 115 -97 c63 -53
127 -102 141 -109 14 -8 32 -21 40 -31 8 -9 50 -41 94 -70 44 -30 112 -75 150
-100 147 -99 291 -192 312 -203 55 -28 108 6 133 86 27 85 99 282 185 503 20
52 48 127 62 165 27 75 47 124 142 337 34 75 61 140 61 145 0 4 4 15 10 23 7
12 13 9 30 -13 18 -23 29 -27 69 -27 26 0 63 8 82 17 39 20 63 30 214 84 111
40 149 52 287 87 80 21 120 32 205 59 29 9 55 14 59 10 4 -4 -21 -64 -56 -134
-102 -207 -110 -224 -110 -234 0 -4 -12 -34 -26 -66 -43 -98 -51 -115 -83
-192 -17 -40 -31 -79 -31 -85 0 -24 38 -49 66 -43 21 4 39 -4 76 -31 26 -20
48 -41 47 -47 0 -5 -38 -41 -85 -79 -77 -63 -84 -71 -84 -105 0 -20 6 -45 13
-56 7 -11 19 -38 26 -60 8 -22 47 -110 88 -195 41 -85 78 -164 83 -175 22 -52
76 -159 125 -250 30 -55 73 -138 95 -185 23 -47 62 -128 87 -180 25 -52 56
-108 68 -125 12 -16 32 -50 44 -75 35 -75 101 -194 119 -215 9 -11 10 -14 2
-7 -8 6 -22 12 -32 12 -20 0 -263 -226 -375 -350 -42 -47 -101 -105 -131 -130
-84 -70 -292 -323 -292 -355 0 -19 18 -53 47 -86 l23 -25 -78 -13 c-42 -7
-104 -17 -137 -22 -168 -27 -225 -42 -246 -65 -22 -23 -22 -27 -12 -146 6 -68
20 -197 33 -288 31 -224 15 -210 234 -210 255 1 604 54 650 100 18 17 18 26 7
182 -6 89 -15 214 -19 277 l-8 114 29 16 c44 24 87 61 87 75 0 8 10 11 29 8
22 -3 33 2 50 25 13 15 79 87 147 159 68 72 137 149 153 170 15 22 38 48 51
59 12 11 40 45 61 75 21 30 59 80 84 110 84 103 175 256 175 294 0 22 -34 156
-49 191 -9 23 -21 58 -62 180 -17 50 -36 104 -44 120 -51 114 -67 155 -81 209
-18 69 -30 113 -70 241 -26 86 -47 136 -146 345 -62 132 -78 170 -73 170 3 0
38 -17 77 -37 54 -28 89 -38 133 -41 71 -5 90 3 374 151 l183 96 -7 -247 c-10
-323 9 -749 33 -773 28 -27 121 -59 262 -90 74 -17 158 -37 186 -45 31 -9 129
-18 240 -23 215 -10 217 -9 236 66 10 42 21 53 33 33 4 -6 46 -31 95 -55 49
-24 92 -50 95 -56 11 -17 106 -59 134 -59 36 0 93 43 147 112 26 34 79 92 118
131 39 38 81 83 92 99 12 15 49 59 82 96 164 180 252 283 294 342 26 36 65 83
87 105 23 21 41 43 41 48 0 5 20 34 45 65 46 57 143 184 223 290 60 79 148
216 183 285 29 57 31 58 49 42 13 -12 31 -16 60 -13 31 3 40 0 40 -12 0 -8
-14 -80 -31 -160 -55 -264 -70 -389 -50 -413 8 -11 6 -18 -9 -32 -45 -41 -16
-75 85 -101 39 -10 150 -44 249 -76 98 -32 189 -58 201 -58 13 0 26 -4 29 -9
3 -5 20 -11 38 -14 18 -2 78 -16 133 -30 55 -14 132 -29 170 -32 39 -4 114
-16 168 -26 145 -28 169 -26 205 16 34 38 116 201 205 410 72 167 86 202 112
285 15 47 33 100 41 118 8 18 14 64 14 103 0 61 -4 75 -27 105 -31 41 -116
109 -188 149 -120 68 -238 127 -299 150 -37 14 -79 34 -94 45 -15 11 -99 51
-187 90 -88 39 -228 105 -312 146 -83 41 -160 74 -171 74 -27 0 -55 -37 -76
-100 -23 -66 -36 -84 -36 -47 0 33 -73 117 -102 117 -26 0 -83 32 -229 127
-19 13 -40 23 -47 23 -6 0 -32 16 -58 35 -25 19 -51 35 -57 35 -11 0 -115 67
-147 94 -8 8 -50 31 -92 54 -42 22 -89 49 -104 61 -15 11 -33 21 -40 21 -7 0
-28 13 -46 29 -18 15 -58 41 -88 56 -30 15 -69 39 -87 54 -71 57 -92 71 -111
71 -11 0 -25 7 -32 15 -39 47 -161 61 -225 25 -20 -11 -44 -20 -55 -20 -10 0
-21 -4 -24 -9 -14 -22 -169 -96 -275 -132 -63 -21 -122 -45 -131 -54 -23 -21
-112 -65 -131 -65 -9 0 -24 -9 -35 -21 -10 -12 -37 -30 -59 -41 -22 -12 -51
-29 -64 -39 -13 -11 -32 -19 -41 -19 -10 0 -23 -7 -30 -15 -7 -9 -32 -24 -54
-35 -23 -10 -52 -30 -65 -44 -14 -14 -30 -26 -36 -26 -6 0 -22 -11 -35 -25
l-23 -24 -24 72 c-13 40 -37 101 -53 137 -16 36 -40 99 -55 140 -15 41 -40
107 -56 145 -16 39 -29 76 -29 82 0 7 -9 32 -19 55 -11 24 -32 75 -47 113 -14
39 -33 86 -41 105 -8 19 -18 44 -22 55 -5 11 -25 55 -45 97 -20 42 -36 81 -36
86 0 22 -51 53 -106 63 -84 16 -617 5 -704 -15 -36 -8 -80 -17 -97 -21 -41 -9
-41 -2 -3 42 17 18 30 38 30 43 0 5 21 39 47 77 25 37 68 100 94 138 26 39 60
87 75 107 43 56 215 312 227 338 7 15 13 25 82 126 22 32 44 67 50 76 10 16
66 97 150 218 25 36 50 71 54 79 11 18 69 -19 149 -96 l61 -59 -32 -13 c-18
-8 -54 -22 -81 -32 -78 -29 -89 -45 -82 -106 6 -54 51 -202 92 -308 l23 -60
-30 -25 c-17 -14 -56 -39 -87 -55 -31 -16 -65 -35 -74 -43 -22 -19 -24 -89 -3
-116 8 -11 15 -27 15 -37 0 -22 143 -180 217 -241 55 -45 61 -47 120 -48 39 0
90 9 135 24 143 46 134 48 220 -46 184 -201 169 -188 224 -188 54 0 53 -1 189
100 50 36 97 69 105 72 21 8 206 164 259 218 43 44 43 44 37 100 -4 30 -15 84
-25 120 -18 64 -18 65 3 75 12 5 32 33 46 60 22 45 25 62 25 165 -1 236 -14
260 -154 268 l-91 5 0 28 c0 21 -14 39 -62 81 -35 30 -81 67 -103 83 -22 16
-68 54 -101 85 -34 30 -90 75 -125 100 -34 25 -81 61 -103 81 -23 20 -72 56
-111 79 -38 23 -92 57 -120 75 -55 35 -377 195 -440 218 -22 8 -88 33 -147 56
-115 44 -150 49 -186 24z m2003 -3023 c16 -16 34 -30 40 -30 6 0 33 -22 60
-50 27 -27 53 -50 58 -50 11 0 64 -38 114 -82 24 -21 51 -38 61 -38 10 0 41
-24 70 -53 28 -29 69 -61 89 -72 21 -10 66 -44 100 -75 34 -30 90 -77 123
-105 33 -27 83 -70 111 -95 l51 -46 -124 -34 c-67 -18 -136 -39 -153 -46 -16
-6 -75 -25 -130 -42 -55 -17 -179 -55 -275 -86 -96 -30 -202 -62 -235 -71 -33
-9 -82 -25 -110 -35 -27 -10 -117 -40 -200 -65 -179 -55 -379 -132 -409 -156
-4 -4 -27 5 -50 21 -45 30 -175 109 -247 149 -26 14 -73 41 -105 60 -33 18
-72 40 -88 48 l-28 15 23 24 c13 13 69 54 124 91 97 66 100 69 103 109 2 28
-9 77 -32 147 -39 114 -45 142 -18 86 28 -59 40 -69 88 -69 43 0 70 10 106 39
17 13 36 24 139 79 24 13 58 37 74 53 17 17 57 47 90 68 33 22 73 53 89 70 17
17 35 31 42 31 6 0 17 6 23 14 7 8 38 26 69 41 31 16 65 35 74 43 10 8 46 29
80 46 35 17 67 40 72 52 22 49 90 57 131 14z"/>
</g>
</svg>
